<svg xmlns="http://www.w3.org/2000/svg" fill="currentColor" viewBox="0 0 24 24" width="24" height="24" class="Icon_icon-content-brand__AKwiy WashingRules_icon__aooc9"><title>No washing</title><path fill="#131313" d="m19.277 6.946-3.19 2.233q.264.087.571.088.369 0 .615-.097a7 7 0 0 0 .493-.211q.246-.123.518-.229.282-.114.695-.14l.369-1.74.474.096-1.88 9.01 1.388.975-.334.395-1.169-.817-.237 1.116H5.848l-.229-1.116-1.169.817-.281-.395 1.336-.94-1.89-9.045.484-.096.369 1.749q.43.026.694.14t.501.229q.194.114.413.21.23.09.598.089.378 0 .659-.106L4.169 6.946l.281-.395 3.41 2.373q.255-.132.563-.237a2.5 2.5 0 0 1 .782-.106q.519 0 .826.123.308.114.571.246.211.114.458.202.22.088.562.088h.07q.378 0 .624-.088a6 6 0 0 0 .475-.202q.273-.132.589-.246.325-.114.861-.114.5.009.8.114t.536.237l3.42-2.39zm-3.665 2.567-3.445 2.417 5.335 3.718 1.371-6.557q-.387.053-.888.307a5 5 0 0 1-.57.247q-.274.105-.695.105h-.07q-.563 0-1.038-.237m1.776 6.688-5.67-3.964-5.66 3.964.194.932h10.942zm-11.444-.518 5.353-3.745-3.49-2.443q-.228.105-.492.185-.246.07-.57.07h-.071q-.466 0-.738-.105a5 5 0 0 1-.51-.247q-.175-.088-.37-.175-.193-.088-.483-.123zm2.373-6.434 3.42 2.382 3.383-2.373a2.1 2.1 0 0 0-.888-.176q-.448 0-.72.097a6 6 0 0 0-.501.21q-.264.133-.554.238t-.765.105h-.07q-.43 0-.703-.105a6 6 0 0 1-.545-.246 8 8 0 0 0-.483-.202q-.255-.106-.686-.106-.457 0-.888.176"></path></svg>